<svg xmlns:xlink="http://www.w3.org/1999/xlink"  width="18" height="20" viewBox="0 0 18 20" fill="none" xmlns="http://www.w3.org/2000/svg">
<path d="M17.5352 18.0782L12.4101 12.6833C13.3821 11.42 13.9673 9.81405 13.9673 8.0655C13.9673 4.01206 10.8344 0.714279 6.98362 0.714279C3.13286 0.714279 0 4.01206 0 8.0655C0 12.1189 3.13289 15.4167 6.98366 15.4167C8.64478 15.4167 10.1705 14.8007 11.3706 13.7775L16.4957 19.1724C16.6393 19.3235 16.872 19.3235 17.0155 19.1724L17.5352 18.6253C17.6787 18.4742 17.6787 18.2292 17.5352 18.0782ZM6.98366 13.8691C3.9434 13.8691 1.47025 11.2658 1.47025 8.0655C1.47025 4.86522 3.9434 2.26191 6.98366 2.26191C10.0239 2.26191 12.4971 4.86522 12.4971 8.0655C12.4971 11.2658 10.0239 13.8691 6.98366 13.8691Z" fill="#333333"/>
</svg>
