<?xml version="1.0" encoding="utf-8"?>
<!-- Generator: Adobe Illustrator 24.1.2, SVG Export Plug-In . SVG Version: 6.00 Build 0)  -->
<svg version="1.1" id="Слой_1" xmlns="http://www.w3.org/2000/svg" xmlns:xlink="http://www.w3.org/1999/xlink" x="0px" y="0px"
	 viewBox="0 0 70 70" style="enable-background:new 0 0 70 70;" xml:space="preserve">
<style type="text/css">
	.st0{fill:#FF0000;}
	.st1{fill-rule:evenodd;clip-rule:evenodd;fill:#FF0000;}
	.st2{fill-rule:evenodd;clip-rule:evenodd;fill:#FFFFFF;}
</style>
<g>
	<g transform="translate(7 5)">
		<g>
			<path id="ae96eeecd750ec2a83543f00c9bc789d__b" class="st0" d="M28.79,50.32c-0.01,0.27-0.23,0.48-0.5,0.48
				c-0.29,0-0.51-0.21-0.52-0.48c-0.15-3.17-1.76-5.22-4.83-6.15C12.81,41.76,5.28,32.66,5.28,21.8c0-12.7,10.3-23,23-23
				s23,10.3,23,23c0,10.86-7.53,19.97-17.66,22.38C30.54,45.1,28.93,47.15,28.79,50.32L28.79,50.32z"/>
		</g>
		<g>
			<path id="ae96eeecd750ec2a83543f00c9bc789d__b_1_" class="st0" d="M28.79,50.32c-0.01,0.27-0.23,0.48-0.5,0.48
				c-0.29,0-0.51-0.21-0.52-0.48c-0.15-3.17-1.76-5.22-4.83-6.15C12.81,41.76,5.28,32.66,5.28,21.8c0-12.7,10.3-23,23-23
				s23,10.3,23,23c0,10.86-7.53,19.97-17.66,22.38C30.54,45.1,28.93,47.15,28.79,50.32L28.79,50.32z"/>
		</g>
	</g>
	<path class="st0" d="M35.28,66.8c-2.21,0-4-1.79-4-4s1.79-4,4-4s4,1.79,4,4S37.49,66.8,35.28,66.8z"/>
	<path class="st1" d="M35.28,64.8c1.1,0.03,2.02-0.85,2.04-1.95s-0.85-2.02-1.95-2.04c-0.03,0-0.06,0-0.09,0
		c-1.1,0.02-1.98,0.94-1.96,2.04C33.35,63.91,34.21,64.77,35.28,64.8z"/>
</g>
<path class="st2" d="M34.28,32.5v4.8h11.4c0.33,0,0.6-0.27,0.6-0.6l0,0V22.9c0-0.33-0.27-0.6-0.6-0.6l0,0h-4.95l-0.16,2h3.71v1
	h-3.79l-0.16,2h3.95v1h-4.03l-0.37,4.72c-0.01,0.17-0.15,0.29-0.32,0.28c0,0,0,0,0,0c-0.16-0.02-0.28-0.15-0.28-0.31V16.7
	c0-0.22-0.18-0.4-0.4-0.4h-0.6v-0.6c0-0.22-0.18-0.4-0.4-0.4h-10.2c-0.22,0-0.4,0.18-0.4,0.4l0,0v0.6h-0.6c-0.22,0-0.4,0.18-0.4,0.4
	l0,0v20c0,0.33,0.27,0.6,0.6,0.6l0,0h4.4v-4.8c0-0.11,0.09-0.2,0.2-0.2h2.6C34.19,32.3,34.28,32.39,34.28,32.5z M29.78,29.3v-6h2v6
	H29.78z M33.78,23.3v6h2v-6H33.78z M29.78,21.3v-3h2v3H29.78z M33.78,18.3v3h2v-3H33.78z M41.28,31.3v-1h3v1H41.28z"/>
</svg>
